  0
SECTION
  2
HEADER
  9
$ACADVER
  1
AC1014
  9
$HANDSEED
  5
FFFF
  9
$MEASUREMENT
 70
     1
  0
ENDSEC
  0
SECTION
  2
TABLES
  0
TABLE
  2
VPORT
  5
8
330
0
100
AcDbSymbolTable
 70
     4
  0
VPORT
  5
2E
330
8
100
AcDbSymbolTableRecord
100
AcDbViewportTableRecord
  2
*ACTIVE
 70
     0
 10
0.0
 20
0.0
 11
1.0
 21
1.0
 12
210.0
 22
148.5
 13
0.0
 23
0.0
 14
10.0
 24
10.0
 15
10.0
 25
10.0
 16
0.0
 26
0.0
 36
1.0
 17
0.0
 27
0.0
 37
0.0
 40
341.0
 41
1.24
 42
50.0
 43
0.0
 44
0.0
 50
0.0
 51
0.0
 71
     0
 72
   100
 73
     1
 74
     3
 75
     0
 76
     0
 77
     0
 78
     0
  0
ENDTAB
  0
TABLE
  2
LTYPE
  5
5
330
0
100
AcDbSymbolTable
 70
     1
  0
LTYPE
  5
14
330
5
100
AcDbSymbolTableRecord
100
AcDbLinetypeTableRecord
  2
BYBLOCK
 70
     0
  3

 72
    65
 73
     0
 40
0.0
  0
LTYPE
  5
15
330
5
100
AcDbSymbolTableRecord
100
AcDbLinetypeTableRecord
  2
BYLAYER
 70
     0
  3

 72
    65
 73
     0
 40
0.0
  0
LTYPE
  5
16
330
5
100
AcDbSymbolTableRecord
100
AcDbLinetypeTableRecord
  2
CONTINUOUS
 70
     0
  3
Solid line
 72
    65
 73
     0
 40
0.0
  0
ENDTAB
  0
TABLE
  2
LAYER
  5
2
100
AcDbSymbolTable
 70
2
  0
LAYER
  5
50
100
AcDbSymbolTableRecord
100
AcDbLayerTableRecord
  2
0
 70
0
  6
CONTINUOUS
  0
LAYER
  5
51
100
AcDbSymbolTableRecord
100
AcDbLayerTableRecord
  2
Layer_1
 70
0
  6
CONTINUOUS
  0
ENDTAB
  0
TABLE
  2
STYLE
  5
3
330
0
100
AcDbSymbolTable
 70
     1
  0
STYLE
  5
11
330
3
100
AcDbSymbolTableRecord
100
AcDbTextStyleTableRecord
  2
STANDARD
 70
     0
 40
0.0
 41
1.0
 50
0.0
 71
     0
 42
2.5
  3
txt
  4

  0
ENDTAB
  0
TABLE
  2
VIEW
  5
6
330
0
100
AcDbSymbolTable
 70
     0
  0
ENDTAB
  0
TABLE
  2
UCS
  5
7
330
0
100
AcDbSymbolTable
 70
     0
  0
ENDTAB
  0
TABLE
  2
APPID
  5
9
330
0
100
AcDbSymbolTable
 70
     2
  0
APPID
  5
12
330
9
100
AcDbSymbolTableRecord
100
AcDbRegAppTableRecord
  2
ACAD
 70
     0
  0
ENDTAB
  0
TABLE
  2
DIMSTYLE
  5
A
330
0
100
AcDbSymbolTable
 70
     1
  0
DIMSTYLE
105
27
330
A
100
AcDbSymbolTableRecord
100
AcDbDimStyleTableRecord
  2
ISO-25
 70
     0
  3

  4

  5

  6

  7

 40
1.0
 41
2.5
 42
0.625
 43
3.75
 44
1.25
 45
0.0
 46
0.0
 47
0.0
 48
0.0
140
2.5
141
2.5
142
0.0
143
0.03937007874016
144
1.0
145
0.0
146
1.0
147
0.625
 71
     0
 72
     0
 73
     0
 74
     0
 75
     0
 76
     0
 77
     1
 78
     8
170
     0
171
     3
172
     1
173
     0
174
     0
175
     0
176
     0
177
     0
178
     0
270
     2
271
     2
272
     2
273
     2
274
     3
340
11
275
     0
280
     0
281
     0
282
     0
283
     0
284
     8
285
     0
286
     0
287
     3
288
     0
  0
ENDTAB
  0
TABLE
  2
BLOCK_RECORD
  5
1
330
0
100
AcDbSymbolTable
 70
     1
  0
BLOCK_RECORD
  5
1F
330
1
100
AcDbSymbolTableRecord
100
AcDbBlockTableRecord
  2
*MODEL_SPACE
  0
BLOCK_RECORD
  5
1B
330
1
100
AcDbSymbolTableRecord
100
AcDbBlockTableRecord
  2
*PAPER_SPACE
  0
ENDTAB
  0
ENDSEC
  0
SECTION
  2
BLOCKS
  0
BLOCK
  5
20
330
1F
100
AcDbEntity
  8
0
100
AcDbBlockBegin
  2
*MODEL_SPACE
 70
     0
 10
0.0
 20
0.0
 30
0.0
  3
*MODEL_SPACE
  1

  0
ENDBLK
  5
21
330
1F
100
AcDbEntity
  8
0
100
AcDbBlockEnd
  0
BLOCK
  5
1C
330
1B
100
AcDbEntity
 67
     1
  8
0
100
AcDbBlockBegin
  2
*PAPER_SPACE
  1

  0
ENDBLK
  5
1D
330
1B
100
AcDbEntity
 67
     1
  8
0
100
AcDbBlockEnd
  0
ENDSEC
  0
SECTION
  2
ENTITIES
  0
SPLINE
  5
100
100
AcDbEntity
  8
Layer_1
 62
7
100
AcDbSpline
 70
8
 71
3
 72
8
 73
4
 74
0
 40
0
 40
0
 40
0
 40
0
 40
1
 40
1
 40
1
 40
1
 10
202.331820
 20
133.201850
 30
0.0
 10
177.978200
 20
147.506370
 30
0.0
 10
153.625270
 20
161.810490
 30
0.0
 10
139.505280
 20
158.075320
 30
0.0
  0
SPLINE
  5
101
100
AcDbEntity
  8
Layer_1
 62
7
100
AcDbSpline
 70
8
 71
3
 72
8
 73
4
 74
0
 40
0
 40
0
 40
0
 40
0
 40
1
 40
1
 40
1
 40
1
 10
139.505280
 20
158.075320
 30
0.0
 10
125.385280
 20
154.340160
 30
0.0
 10
121.499850
 20
132.566300
 30
0.0
 10
124.163350
 20
121.628550
 30
0.0
  0
SPLINE
  5
102
100
AcDbEntity
  8
Layer_1
 62
7
100
AcDbSpline
 70
8
 71
3
 72
8
 73
4
 74
0
 40
0
 40
0
 40
0
 40
0
 40
1
 40
1
 40
1
 40
1
 10
124.163350
 20
121.628550
 30
0.0
 10
126.826850
 20
110.690790
 30
0.0
 10
136.038640
 20
110.590280
 30
0.0
 10
143.826860
 20
112.951860
 30
0.0
  0
SPLINE
  5
103
100
AcDbEntity
  8
Layer_1
 62
7
100
AcDbSpline
 70
8
 71
3
 72
8
 73
4
 74
0
 40
0
 40
0
 40
0
 40
0
 40
1
 40
1
 40
1
 40
1
 10
143.826860
 20
112.951860
 30
0.0
 10
151.615070
 20
115.313440
 30
0.0
 10
157.978810
 20
120.136770
 30
0.0
 10
167.492500
 20
123.922180
 30
0.0
  0
SPLINE
  5
104
100
AcDbEntity
  8
Layer_1
 62
7
100
AcDbSpline
 70
8
 71
3
 72
8
 73
4
 74
0
 40
0
 40
0
 40
0
 40
0
 40
1
 40
1
 40
1
 40
1
 10
167.492500
 20
123.922180
 30
0.0
 10
177.006200
 20
127.707590
 30
0.0
 10
189.668830
 20
130.454680
 30
0.0
 10
202.331820
 20
133.201850
 30
0.0
  0
LINE
  5
105
100
AcDbEntity
  8
Layer_1
 62
7
100
AcDbLine
 10
202.331820
 20
133.201850
 30
0.0
 11
202.331820
 21
133.201850
 31
0.0
  0
SPLINE
  5
106
100
AcDbEntity
  8
Layer_1
 62
7
100
AcDbSpline
 70
8
 71
3
 72
8
 73
4
 74
0
 40
0
 40
0
 40
0
 40
0
 40
1
 40
1
 40
1
 40
1
 10
6.986461
 20
215.559551
 30
0.0
 10
30.824157
 20
218.214057
 30
0.0
 10
53.762864
 20
220.768455
 30
0.0
 10
71.679662
 20
216.419591
 30
0.0
  0
SPLINE
  5
107
100
AcDbEntity
  8
Layer_1
 62
7
100
AcDbSpline
 70
8
 71
3
 72
8
 73
4
 74
0
 40
0
 40
0
 40
0
 40
0
 40
1
 40
1
 40
1
 40
1
 10
71.679662
 20
216.419591
 30
0.0
 10
89.596461
 20
212.070728
 30
0.0
 10
102.005910
 20
199.263806
 30
0.0
 10
103.024620
 20
188.303430
 30
0.0
  0
SPLINE
  5
108
100
AcDbEntity
  8
Layer_1
 62
7
100
AcDbSpline
 70
8
 71
3
 72
8
 73
4
 74
0
 40
0
 40
0
 40
0
 40
0
 40
1
 40
1
 40
1
 40
1
 10
103.024620
 20
188.303430
 30
0.0
 10
104.043330
 20
177.343060
 30
0.0
 10
94.276171
 20
157.808730
 30
0.0
 10
82.808795
 20
152.865060
 30
0.0
  0
SPLINE
  5
109
100
AcDbEntity
  8
Layer_1
 62
7
100
AcDbSpline
 70
8
 71
3
 72
8
 73
4
 74
0
 40
0
 40
0
 40
0
 40
0
 40
1
 40
1
 40
1
 40
1
 10
82.808795
 20
152.865060
 30
0.0
 10
71.341419
 20
147.921390
 30
0.0
 10
56.561494
 20
154.337950
 30
0.0
 10
45.865220
 20
162.882160
 30
0.0
  0
SPLINE
  5
10a
100
AcDbEntity
  8
Layer_1
 62
7
100
AcDbSpline
 70
8
 71
3
 72
8
 73
4
 74
0
 40
0
 40
0
 40
0
 40
0
 40
1
 40
1
 40
1
 40
1
 10
45.865220
 20
162.882160
 30
0.0
 10
35.168945
 20
171.426370
 30
0.0
 10
28.559600
 20
182.095880
 30
0.0
 10
22.760490
 20
191.230420
 30
0.0
  0
SPLINE
  5
10b
100
AcDbEntity
  8
Layer_1
 62
7
100
AcDbSpline
 70
8
 71
3
 72
8
 73
4
 74
0
 40
0
 40
0
 40
0
 40
0
 40
1
 40
1
 40
1
 40
1
 10
22.760490
 20
191.230420
 30
0.0
 10
16.961379
 20
200.364957
 30
0.0
 10
11.973988
 20
207.962151
 30
0.0
 10
6.986461
 20
215.559551
 30
0.0
  0
LINE
  5
10c
100
AcDbEntity
  8
Layer_1
 62
7
100
AcDbLine
 10
6.986461
 20
215.559551
 30
0.0
 11
6.986461
 21
215.559551
 31
0.0
  0
SPLINE
  5
10d
100
AcDbEntity
  8
Layer_1
 62
1
100
AcDbSpline
 70
8
 71
3
 72
8
 73
4
 74
0
 40
0
 40
0
 40
0
 40
0
 40
1
 40
1
 40
1
 40
1
 10
7.447453
 20
214.857331
 30
0.0
 10
7.293774
 20
215.091431
 30
0.0
 10
7.140118
 20
215.325491
 30
0.0
 10
6.986461
 20
215.559551
 30
0.0
  0
LINE
  5
10e
100
AcDbEntity
  8
Layer_1
 62
7
100
AcDbLine
 10
7.213960
 20
214.998041
 30
0.0
 11
12.442892
 21
207.228941
 31
0.0
  0
SPLINE
  5
10f
100
AcDbEntity
  8
Layer_1
 62
7
100
AcDbSpline
 70
8
 71
3
 72
8
 73
4
 74
0
 40
0
 40
0
 40
0
 40
0
 40
1
 40
1
 40
1
 40
1
 10
12.442892
 20
207.228941
 30
0.0
 10
15.696185
 20
202.248181
 30
0.0
 10
19.056430
 20
197.065091
 30
0.0
 10
22.760488
 20
191.230600
 30
0.0
  0
SPLINE
  5
110
100
AcDbEntity
  8
Layer_1
 62
7
100
AcDbSpline
 70
8
 71
3
 72
8
 73
4
 74
0
 40
0
 40
0
 40
0
 40
0
 40
1
 40
1
 40
1
 40
1
 10
22.760488
 20
191.230600
 30
0.0
 10
28.559600
 20
182.096060
 30
0.0
 10
35.168855
 20
171.426280
 30
0.0
 10
45.865129
 20
162.882070
 30
0.0
  0
SPLINE
  5
111
100
AcDbEntity
  8
Layer_1
 62
7
100
AcDbSpline
 70
8
 71
3
 72
8
 73
4
 74
0
 40
0
 40
0
 40
0
 40
0
 40
1
 40
1
 40
1
 40
1
 10
45.865129
 20
162.882070
 30
0.0
 10
56.561403
 20
154.337860
 30
0.0
 10
71.341336
 20
147.921590
 30
0.0
 10
82.808710
 20
152.865260
 30
0.0
  0
SPLINE
  5
112
100
AcDbEntity
  8
Layer_1
 62
7
100
AcDbSpline
 70
8
 71
3
 72
8
 73
4
 74
0
 40
0
 40
0
 40
0
 40
0
 40
1
 40
1
 40
1
 40
1
 10
82.808710
 20
152.865260
 30
0.0
 10
86.727454
 20
154.554660
 30
0.0
 10
90.446222
 20
157.949790
 30
0.0
 10
93.605283
 20
162.122530
 30
0.0
  0
LINE
  5
113
100
AcDbEntity
  8
Layer_1
 62
7
100
AcDbLine
 10
93.605283
 20
162.122530
 30
0.0
 11
93.994532
 21
161.906000
 31
0.0
  0
SPLINE
  5
114
100
AcDbEntity
  8
Layer_1
 62
7
100
AcDbSpline
 70
8
 71
3
 72
8
 73
4
 74
0
 40
0
 40
0
 40
0
 40
0
 40
1
 40
1
 40
1
 40
1
 10
93.994532
 20
161.906000
 30
0.0
 10
93.914962
 20
162.043110
 30
0.0
 10
93.834479
 20
162.180460
 30
0.0
 10
93.754832
 20
162.317580
 30
0.0
  0
SPLINE
  5
115
100
AcDbEntity
  8
Layer_1
 62
7
100
AcDbSpline
 70
8
 71
3
 72
8
 73
4
 74
0
 40
0
 40
0
 40
0
 40
0
 40
1
 40
1
 40
1
 40
1
 10
93.754832
 20
162.317580
 30
0.0
 10
89.210358
 20
170.141330
 30
0.0
 10
84.414840
 20
178.015070
 30
0.0
 10
64.996409
 20
188.807070
 30
0.0
  0
SPLINE
  5
116
100
AcDbEntity
  8
Layer_1
 62
7
100
AcDbSpline
 70
8
 71
3
 72
8
 73
4
 74
0
 40
0
 40
0
 40
0
 40
0
 40
1
 40
1
 40
1
 40
1
 10
64.996409
 20
188.807070
 30
0.0
 10
45.237650
 20
199.788211
 30
0.0
 10
42.111285
 20
200.996461
 30
0.0
 10
7.213960
 20
214.998041
 30
0.0
  0
LINE
  5
117
100
AcDbEntity
  8
Layer_1
 62
7
100
AcDbLine
 10
7.213960
 20
214.998041
 30
0.0
 11
7.213960
 21
214.998041
 31
0.0
  0
SPLINE
  5
118
100
AcDbEntity
  8
Layer_1
 62
7
100
AcDbSpline
 70
8
 71
3
 72
8
 73
4
 74
0
 40
0
 40
0
 40
0
 40
0
 40
1
 40
1
 40
1
 40
1
 10
6.986461
 20
215.559551
 30
0.0
 10
30.824157
 20
218.214057
 30
0.0
 10
53.762864
 20
220.768455
 30
0.0
 10
71.679662
 20
216.419591
 30
0.0
  0
SPLINE
  5
119
100
AcDbEntity
  8
Layer_1
 62
7
100
AcDbSpline
 70
8
 71
3
 72
8
 73
4
 74
0
 40
0
 40
0
 40
0
 40
0
 40
1
 40
1
 40
1
 40
1
 10
71.679662
 20
216.419591
 30
0.0
 10
89.596461
 20
212.070728
 30
0.0
 10
102.005910
 20
199.263806
 30
0.0
 10
103.024620
 20
188.303430
 30
0.0
  0
SPLINE
  5
11a
100
AcDbEntity
  8
Layer_1
 62
7
100
AcDbSpline
 70
8
 71
3
 72
8
 73
4
 74
0
 40
0
 40
0
 40
0
 40
0
 40
1
 40
1
 40
1
 40
1
 10
103.024620
 20
188.303430
 30
0.0
 10
104.043330
 20
177.343060
 30
0.0
 10
94.276171
 20
157.808730
 30
0.0
 10
82.808795
 20
152.865060
 30
0.0
  0
SPLINE
  5
11b
100
AcDbEntity
  8
Layer_1
 62
7
100
AcDbSpline
 70
8
 71
3
 72
8
 73
4
 74
0
 40
0
 40
0
 40
0
 40
0
 40
1
 40
1
 40
1
 40
1
 10
82.808795
 20
152.865060
 30
0.0
 10
71.341419
 20
147.921390
 30
0.0
 10
56.561494
 20
154.337950
 30
0.0
 10
45.865220
 20
162.882160
 30
0.0
  0
SPLINE
  5
11c
100
AcDbEntity
  8
Layer_1
 62
7
100
AcDbSpline
 70
8
 71
3
 72
8
 73
4
 74
0
 40
0
 40
0
 40
0
 40
0
 40
1
 40
1
 40
1
 40
1
 10
45.865220
 20
162.882160
 30
0.0
 10
35.168945
 20
171.426370
 30
0.0
 10
28.559600
 20
182.095880
 30
0.0
 10
22.760490
 20
191.230420
 30
0.0
  0
SPLINE
  5
11d
100
AcDbEntity
  8
Layer_1
 62
7
100
AcDbSpline
 70
8
 71
3
 72
8
 73
4
 74
0
 40
0
 40
0
 40
0
 40
0
 40
1
 40
1
 40
1
 40
1
 10
22.760490
 20
191.230420
 30
0.0
 10
16.961379
 20
200.364957
 30
0.0
 10
11.973988
 20
207.962151
 30
0.0
 10
6.986461
 20
215.559551
 30
0.0
  0
LINE
  5
11e
100
AcDbEntity
  8
Layer_1
 62
7
100
AcDbLine
 10
6.986461
 20
215.559551
 30
0.0
 11
6.986461
 21
215.559551
 31
0.0
  0
SPLINE
  5
11f
100
AcDbEntity
  8
Layer_1
 62
7
100
AcDbSpline
 70
8
 71
3
 72
8
 73
4
 74
0
 40
0
 40
0
 40
0
 40
0
 40
1
 40
1
 40
1
 40
1
 10
49.919236
 20
196.485960
 30
0.0
 10
63.738099
 20
189.454790
 30
0.0
 10
77.556947
 20
182.423630
 30
0.0
 10
87.384834
 20
170.657010
 30
0.0
  0
SPLINE
  5
120
100
AcDbEntity
  8
Layer_1
 62
7
100
AcDbSpline
 70
8
 71
3
 72
8
 73
4
 74
0
 40
0
 40
0
 40
0
 40
0
 40
1
 40
1
 40
1
 40
1
 10
87.384834
 20
170.657010
 30
0.0
 10
97.212720
 20
158.890400
 30
0.0
 10
103.049180
 20
142.389580
 30
0.0
 10
101.891460
 20
126.666000
 30
0.0
  0
SPLINE
  5
121
100
AcDbEntity
  8
Layer_1
 62
7
100
AcDbSpline
 70
8
 71
3
 72
8
 73
4
 74
0
 40
0
 40
0
 40
0
 40
0
 40
1
 40
1
 40
1
 40
1
 10
101.891460
 20
126.666000
 30
0.0
 10
100.733730
 20
110.942420
 30
0.0
 10
92.582103
 20
95.997760
 30
0.0
 10
89.864795
 20
84.448840
 30
0.0
  0
SPLINE
  5
122
100
AcDbEntity
  8
Layer_1
 62
7
100
AcDbSpline
 70
8
 71
3
 72
8
 73
4
 74
0
 40
0
 40
0
 40
0
 40
0
 40
1
 40
1
 40
1
 40
1
 10
89.864795
 20
84.448840
 30
0.0
 10
87.147487
 20
72.899920
 30
0.0
 10
89.864750
 20
64.748130
 30
0.0
 10
92.581982
 20
56.596430
 30
0.0
  0
SPLINE
  5
123
100
AcDbEntity
  8
Layer_1
 62
7
100
AcDbSpline
 70
8
 71
3
 72
8
 73
4
 74
0
 40
0
 40
0
 40
0
 40
0
 40
1
 40
1
 40
1
 40
1
 10
141.149550
 20
137.485750
 30
0.0
 10
136.901020
 20
137.494750
 30
0.0
 10
133.168610
 20
137.344570
 30
0.0
 10
130.004590
 20
136.986980
 30
0.0
  0
SPLINE
  5
124
100
AcDbEntity
  8
Layer_1
 62
7
100
AcDbSpline
 70
8
 71
3
 72
8
 73
4
 74
0
 40
0
 40
0
 40
0
 40
0
 40
1
 40
1
 40
1
 40
1
 10
130.004590
 20
136.986980
 30
0.0
 10
122.772560
 20
136.169630
 30
0.0
 10
123.845500
 20
135.626590
 30
0.0
 10
123.845500
 20
135.626590
 30
0.0
  0
LINE
  5
125
100
AcDbEntity
  8
Layer_1
 62
7
100
AcDbLine
 10
123.845500
 20
135.626590
 30
0.0
 11
123.528080
 21
132.476080
 31
0.0
  0
SPLINE
  5
126
100
AcDbEntity
  8
Layer_1
 62
7
100
AcDbSpline
 70
8
 71
3
 72
8
 73
4
 74
0
 40
0
 40
0
 40
0
 40
0
 40
1
 40
1
 40
1
 40
1
 10
123.528080
 20
132.476080
 30
0.0
 10
123.197650
 20
128.442770
 30
0.0
 10
123.432980
 20
124.627690
 30
0.0
 10
124.163340
 20
121.628540
 30
0.0
  0
SPLINE
  5
127
100
AcDbEntity
  8
Layer_1
 62
7
100
AcDbSpline
 70
8
 71
3
 72
8
 73
4
 74
0
 40
0
 40
0
 40
0
 40
0
 40
1
 40
1
 40
1
 40
1
 10
124.163340
 20
121.628540
 30
0.0
 10
126.826850
 20
110.690780
 30
0.0
 10
136.038470
 20
110.590190
 30
0.0
 10
143.826680
 20
112.951760
 30
0.0
  0
SPLINE
  5
128
100
AcDbEntity
  8
Layer_1
 62
7
100
AcDbSpline
 70
8
 71
3
 72
8
 73
4
 74
0
 40
0
 40
0
 40
0
 40
0
 40
1
 40
1
 40
1
 40
1
 10
143.826680
 20
112.951760
 30
0.0
 10
151.614890
 20
115.313340
 30
0.0
 10
157.978750
 20
120.136910
 30
0.0
 10
167.492440
 20
123.922320
 30
0.0
  0
SPLINE
  5
129
100
AcDbEntity
  8
Layer_1
 62
7
100
AcDbSpline
 70
8
 71
3
 72
8
 73
4
 74
0
 40
0
 40
0
 40
0
 40
0
 40
1
 40
1
 40
1
 40
1
 10
167.492440
 20
123.922320
 30
0.0
 10
177.006140
 20
127.707730
 30
0.0
 10
189.668820
 20
130.454750
 30
0.0
 10
202.331810
 20
133.201920
 30
0.0
  0
SPLINE
  5
12a
100
AcDbEntity
  8
Layer_1
 62
7
100
AcDbSpline
 70
8
 71
3
 72
8
 73
4
 74
0
 40
0
 40
0
 40
0
 40
0
 40
1
 40
1
 40
1
 40
1
 10
202.331810
 20
133.201920
 30
0.0
 10
202.257610
 20
133.245520
 30
0.0
 10
202.183570
 20
133.288920
 30
0.0
 10
202.109390
 20
133.332510
 30
0.0
  0
LINE
  5
12b
100
AcDbEntity
  8
Layer_1
 62
7
100
AcDbLine
 10
202.109390
 20
133.332510
 30
0.0
 11
202.310330
 21
133.334510
 31
0.0
  0
SPLINE
  5
12c
100
AcDbEntity
  8
Layer_1
 62
7
100
AcDbSpline
 70
8
 71
3
 72
8
 73
4
 74
0
 40
0
 40
0
 40
0
 40
0
 40
1
 40
1
 40
1
 40
1
 10
202.310330
 20
133.334510
 30
0.0
 10
202.229730
 20
133.341510
 30
0.0
 10
202.149950
 20
133.348410
 30
0.0
 10
202.069370
 20
133.355610
 30
0.0
  0
LINE
  5
12d
100
AcDbEntity
  8
Layer_1
 62
7
100
AcDbLine
 10
202.069370
 20
133.355610
 30
0.0
 11
202.068940
 21
133.356040
 31
0.0
  0
LINE
  5
12e
100
AcDbEntity
  8
Layer_1
 62
7
100
AcDbLine
 10
202.068940
 20
133.356040
 30
0.0
 11
202.063940
 21
133.356040
 31
0.0
  0
SPLINE
  5
12f
100
AcDbEntity
  8
Layer_1
 62
7
100
AcDbSpline
 70
8
 71
3
 72
8
 73
4
 74
0
 40
0
 40
0
 40
0
 40
0
 40
1
 40
1
 40
1
 40
1
 10
202.063940
 20
133.356040
 30
0.0
 10
187.256760
 20
134.663590
 30
0.0
 10
172.461920
 20
135.968320
 30
0.0
 10
159.984730
 20
136.752690
 30
0.0
  0
SPLINE
  5
130
100
AcDbEntity
  8
Layer_1
 62
7
100
AcDbSpline
 70
8
 71
3
 72
8
 73
4
 74
0
 40
0
 40
0
 40
0
 40
0
 40
1
 40
1
 40
1
 40
1
 10
159.984730
 20
136.752690
 30
0.0
 10
152.927240
 20
137.196360
 30
0.0
 10
146.611990
 20
137.473560
 30
0.0
 10
141.149600
 20
137.485690
 30
0.0
  0
LINE
  5
131
100
AcDbEntity
  8
Layer_1
 62
7
100
AcDbLine
 10
141.149600
 20
137.485690
 30
0.0
 11
141.149550
 21
137.485750
 31
0.0
  0
SPLINE
  5
132
100
AcDbEntity
  8
Layer_1
 62
7
100
AcDbSpline
 70
8
 71
3
 72
8
 73
4
 74
0
 40
0
 40
0
 40
0
 40
0
 40
1
 40
1
 40
1
 40
1
 10
202.331820
 20
133.201850
 30
0.0
 10
177.978200
 20
147.506370
 30
0.0
 10
153.625270
 20
161.810490
 30
0.0
 10
139.505280
 20
158.075320
 30
0.0
  0
SPLINE
  5
133
100
AcDbEntity
  8
Layer_1
 62
7
100
AcDbSpline
 70
8
 71
3
 72
8
 73
4
 74
0
 40
0
 40
0
 40
0
 40
0
 40
1
 40
1
 40
1
 40
1
 10
139.505280
 20
158.075320
 30
0.0
 10
125.385280
 20
154.340160
 30
0.0
 10
121.499850
 20
132.566300
 30
0.0
 10
124.163350
 20
121.628550
 30
0.0
  0
SPLINE
  5
134
100
AcDbEntity
  8
Layer_1
 62
7
100
AcDbSpline
 70
8
 71
3
 72
8
 73
4
 74
0
 40
0
 40
0
 40
0
 40
0
 40
1
 40
1
 40
1
 40
1
 10
124.163350
 20
121.628550
 30
0.0
 10
126.826850
 20
110.690790
 30
0.0
 10
136.038640
 20
110.590280
 30
0.0
 10
143.826860
 20
112.951860
 30
0.0
  0
SPLINE
  5
135
100
AcDbEntity
  8
Layer_1
 62
7
100
AcDbSpline
 70
8
 71
3
 72
8
 73
4
 74
0
 40
0
 40
0
 40
0
 40
0
 40
1
 40
1
 40
1
 40
1
 10
143.826860
 20
112.951860
 30
0.0
 10
151.615070
 20
115.313440
 30
0.0
 10
157.978810
 20
120.136770
 30
0.0
 10
167.492500
 20
123.922180
 30
0.0
  0
SPLINE
  5
136
100
AcDbEntity
  8
Layer_1
 62
7
100
AcDbSpline
 70
8
 71
3
 72
8
 73
4
 74
0
 40
0
 40
0
 40
0
 40
0
 40
1
 40
1
 40
1
 40
1
 10
167.492500
 20
123.922180
 30
0.0
 10
177.006200
 20
127.707590
 30
0.0
 10
189.668830
 20
130.454680
 30
0.0
 10
202.331820
 20
133.201850
 30
0.0
  0
LINE
  5
137
100
AcDbEntity
  8
Layer_1
 62
7
100
AcDbLine
 10
202.331820
 20
133.201850
 30
0.0
 11
202.331820
 21
133.201850
 31
0.0
  0
SPLINE
  5
138
100
AcDbEntity
  8
Layer_1
 62
7
100
AcDbSpline
 70
8
 71
3
 72
8
 73
4
 74
0
 40
0
 40
0
 40
0
 40
0
 40
1
 40
1
 40
1
 40
1
 10
96.884503
 20
104.901810
 30
0.0
 10
100.884920
 20
114.614430
 30
0.0
 10
104.885390
 20
124.327180
 30
0.0
 10
111.338500
 20
129.935600
 30
0.0
  0
SPLINE
  5
139
100
AcDbEntity
  8
Layer_1
 62
7
100
AcDbSpline
 70
8
 71
3
 72
8
 73
4
 74
0
 40
0
 40
0
 40
0
 40
0
 40
1
 40
1
 40
1
 40
1
 10
111.338500
 20
129.935600
 30
0.0
 10
117.791620
 20
135.544020
 30
0.0
 10
126.697150
 20
137.048000
 30
0.0
 10
136.028300
 20
137.427520
 30
0.0
  0
SPLINE
  5
13a
100
AcDbEntity
  8
Layer_1
 62
7
100
AcDbSpline
 70
8
 71
3
 72
8
 73
4
 74
0
 40
0
 40
0
 40
0
 40
0
 40
1
 40
1
 40
1
 40
1
 10
136.028300
 20
137.427520
 30
0.0
 10
145.359440
 20
137.807030
 30
0.0
 10
155.115670
 20
137.062130
 30
0.0
 10
164.872200
 20
136.317210
 30
0.0
  0
ENDSEC
  0
SECTION
  2
OBJECTS
  0
DICTIONARY
  5
C
330
0
100
AcDbDictionary
  3
ACAD_GROUP
350
D
  3
ACAD_MLINESTYLE
350
17
  0
DICTIONARY
  5
D
330
C
100
AcDbDictionary
  0
DICTIONARY
  5
1A
330
C
100
AcDbDictionary
  0
DICTIONARY
  5
17
330
C
100
AcDbDictionary
  3
STANDARD
350
18
  0
DICTIONARY
  5
19
330
C
100
AcDbDictionary
  0
ENDSEC
  0
EOF
