<?xml version="1.0" encoding="UTF-8" standalone="no"?>
<svg
   xmlns:dc="http://purl.org/dc/elements/1.1/"
   xmlns:cc="http://creativecommons.org/ns#"
   xmlns:rdf="http://www.w3.org/1999/02/22-rdf-syntax-ns#"
   xmlns:svg="http://www.w3.org/2000/svg"
   xmlns="http://www.w3.org/2000/svg"
   xmlns:sodipodi="http://sodipodi.sourceforge.net/DTD/sodipodi-0.dtd"
   xmlns:inkscape="http://www.inkscape.org/namespaces/inkscape"
   width="210mm"
   height="195mm"
   viewBox="0 0 210 195"
   version="1.1"
   id="svg8"
   inkscape:version="1.0 (4035a4fb49, 2020-05-01)"
   sodipodi:docname="logo-ball.svg">
  <defs
     id="defs2">
    <inkscape:path-effect
       only_selected="false"
       apply_with_weight="true"
       apply_no_weight="true"
       helper_size="0"
       steps="2"
       weight="33.333333"
       lpeversion="1"
       is_visible="true"
       id="path-effect930"
       effect="bspline" />
    <inkscape:path-effect
       only_selected="false"
       apply_with_weight="true"
       apply_no_weight="true"
       helper_size="0"
       steps="2"
       weight="33.333333"
       lpeversion="1"
       is_visible="true"
       id="path-effect922"
       effect="bspline" />
    <inkscape:path-effect
       effect="bspline"
       id="path-effect918"
       is_visible="true"
       lpeversion="1"
       weight="33.333333"
       steps="2"
       helper_size="0"
       apply_no_weight="true"
       apply_with_weight="true"
       only_selected="false" />
    <inkscape:path-effect
       only_selected="false"
       apply_with_weight="true"
       apply_no_weight="true"
       helper_size="0"
       steps="2"
       weight="33.333333"
       lpeversion="1"
       is_visible="true"
       id="path-effect914"
       effect="bspline" />
    <inkscape:path-effect
       effect="bspline"
       id="path-effect910"
       is_visible="true"
       lpeversion="1"
       weight="33.333333"
       steps="2"
       helper_size="0"
       apply_no_weight="true"
       apply_with_weight="true"
       only_selected="false" />
    <inkscape:path-effect
       only_selected="false"
       apply_with_weight="true"
       apply_no_weight="true"
       helper_size="0"
       steps="2"
       weight="33.333333"
       lpeversion="1"
       is_visible="true"
       id="path-effect902"
       effect="bspline" />
    <inkscape:path-effect
       effect="bspline"
       id="path-effect891"
       is_visible="true"
       lpeversion="1"
       weight="33.333333"
       steps="2"
       helper_size="0"
       apply_no_weight="true"
       apply_with_weight="true"
       only_selected="false" />
    <inkscape:path-effect
       effect="bspline"
       id="path-effect887"
       is_visible="true"
       lpeversion="1"
       weight="33.333333"
       steps="2"
       helper_size="0"
       apply_no_weight="true"
       apply_with_weight="true"
       only_selected="false" />
    <inkscape:path-effect
       effect="bspline"
       id="path-effect883"
       is_visible="true"
       lpeversion="1"
       weight="33.333333"
       steps="2"
       helper_size="0"
       apply_no_weight="true"
       apply_with_weight="true"
       only_selected="false" />
    <inkscape:path-effect
       only_selected="false"
       apply_with_weight="true"
       apply_no_weight="true"
       helper_size="0"
       steps="2"
       weight="33.333333"
       lpeversion="1"
       is_visible="true"
       id="path-effect877"
       effect="bspline" />
    <inkscape:path-effect
       effect="bspline"
       id="path-effect858"
       is_visible="true"
       lpeversion="1"
       weight="33.333333"
       steps="2"
       helper_size="0"
       apply_no_weight="true"
       apply_with_weight="true"
       only_selected="false" />
    <inkscape:path-effect
       effect="bspline"
       id="path-effect854"
       is_visible="true"
       lpeversion="1"
       weight="33.333333"
       steps="2"
       helper_size="0"
       apply_no_weight="true"
       apply_with_weight="true"
       only_selected="false" />
    <inkscape:path-effect
       effect="bspline"
       id="path-effect850"
       is_visible="true"
       lpeversion="1"
       weight="33.333333"
       steps="2"
       helper_size="0"
       apply_no_weight="true"
       apply_with_weight="true"
       only_selected="false" />
    <inkscape:path-effect
       only_selected="false"
       apply_with_weight="true"
       apply_no_weight="true"
       helper_size="0"
       steps="2"
       weight="33.333333"
       lpeversion="1"
       is_visible="true"
       id="path-effect845"
       effect="bspline" />
    <inkscape:path-effect
       effect="bspline"
       id="path-effect841"
       is_visible="true"
       lpeversion="1"
       weight="33.333333"
       steps="2"
       helper_size="0"
       apply_no_weight="true"
       apply_with_weight="true"
       only_selected="false" />
    <inkscape:path-effect
       effect="bspline"
       id="path-effect837"
       is_visible="true"
       lpeversion="1"
       weight="33.333333"
       steps="2"
       helper_size="0"
       apply_no_weight="true"
       apply_with_weight="true"
       only_selected="false" />
  </defs>
  <sodipodi:namedview
     id="base"
     pagecolor="#ffffff"
     bordercolor="#666666"
     borderopacity="1.0"
     inkscape:pageopacity="0.0"
     inkscape:pageshadow="2"
     inkscape:zoom="0.76318191"
     inkscape:cx="141.90076"
     inkscape:cy="371.783"
     inkscape:document-units="mm"
     inkscape:current-layer="layer1"
     inkscape:document-rotation="0"
     showgrid="true"
     inkscape:snap-global="false"
     inkscape:snap-intersection-paths="true"
     inkscape:window-width="1842"
     inkscape:window-height="1051"
     inkscape:window-x="-9"
     inkscape:window-y="-9"
     inkscape:window-maximized="1">
    <inkscape:grid
       type="xygrid"
       id="grid833" />
  </sodipodi:namedview>
  <metadata
     id="metadata5">
    <rdf:RDF>
      <cc:Work
         rdf:about="">
        <dc:format>image/svg+xml</dc:format>
        <dc:type
           rdf:resource="http://purl.org/dc/dcmitype/StillImage" />
        <dc:title />
      </cc:Work>
    </rdf:RDF>
  </metadata>
  <g
     inkscape:label="Layer 1"
     inkscape:groupmode="layer"
     id="layer1">
    <ellipse
       inkscape:label="background"
       style="fill:#ffe680;stroke:#000000;stroke-width:2.49325;stroke-linecap:round;stroke-linejoin:round"
       id="path857"
       cx="105.82901"
       cy="96.931732"
       rx="103.14348"
       ry="95.725327" />
    <path
       transform="scale(0.26458333)"
       d="m 628.29102,559.5 c -84.057,0.66065 -248.21914,139.10041 -278.87891,165.5957 a 389.83363,361.79651 0 0 0 50.57227,3.05664 389.83363,361.79651 0 0 0 310.51367,-143.05468 C 690.33934,571.07245 663.00247,559.2272 628.29102,559.5 Z"
       style="fill:#ff7f2a;stroke:none;stroke-width:9.42331;stroke-linecap:round;stroke-linejoin:round"
       id="ellipse881" />
    <path
       transform="scale(0.26458333)"
       d="M 233.88867,471.05469 C 182.8629,471.12578 125.73895,530.89482 86.521484,581.44336 A 389.83363,361.79651 0 0 0 399.98438,728.15234 389.83363,361.79651 0 0 0 620.69141,664.58203 C 545.05956,605.49471 359.002,470.88033 233.88867,471.05469 Z"
       style="fill:#c87137;stroke:none;stroke-width:9.42331;stroke-linecap:round;stroke-linejoin:round"
       id="ellipse875" />
    <g
       id="g868"
       transform="matrix(0.88092721,0,0,0.88092721,20.334015,40.839146)">
      <path
         sodipodi:nodetypes="cccccc"
         id="path856"
         d="m 208.92362,91.84468 c -25.8795,-15.200777 -51.75827,-30.401123 -66.76296,-26.431928 -15.00469,3.969195 -19.13357,27.107302 -16.30318,38.730358 2.83038,11.62306 12.61934,11.72987 20.89553,9.22033 8.27618,-2.50954 15.03865,-7.63509 25.14843,-11.65767 10.10977,-4.022586 23.56579,-6.941797 37.02218,-9.86109 z"
         style="fill:#00ff00;stroke:#000000;stroke-width:1.32422;stroke-linecap:butt;stroke-linejoin:miter;stroke-miterlimit:4;stroke-dasharray:none;stroke-opacity:1"
         inkscape:original-d="m 208.92362,91.84468 c 0,0 -51.75831,-30.401058 -77.63851,-45.602331 -4.12887,23.139647 -8.25776,46.277751 -12.38711,69.417001 9.78986,0.10706 19.57882,0.21385 29.36827,0.32044 6.76311,-5.12564 13.52558,-10.25119 20.28817,-15.37723 13.45683,-2.91911 40.36918,-8.75788 40.36918,-8.75788 z"
         inkscape:path-effect="#path-effect858" />
      <path
         style="fill:#00ff00;stroke:#000000;stroke-width:1.73254;stroke-linecap:butt;stroke-linejoin:miter;stroke-miterlimit:4;stroke-dasharray:none;stroke-opacity:1"
         d="M 1.3388448,4.3268356 C 26.670097,1.5060104 51.046034,-1.2084332 70.085415,3.4129091 89.124796,8.0342513 102.31177,21.643592 103.3943,33.290691 104.47684,44.93779 94.097714,65.696049 81.911847,70.949466 69.725979,76.202884 54.020013,69.384289 42.653561,60.304739 31.287109,51.225189 24.263654,39.887181 18.101198,30.180316 11.938743,20.473451 6.6388659,12.400253 1.3388448,4.3268356 Z"
         id="path856-2"
         sodipodi:nodetypes="ccccccc"
         inkscape:original-d="m 1.3388448,4.3268356 c 0,0 49.7072172,-5.535021 75.9937572,-8.4624755 C 89.124799,8.0342486 102.31177,21.643589 111.42261,31.046251 104.47712,44.937929 94.097991,65.696187 85.434456,83.022569 69.725933,76.20299 54.019966,69.384398 38.311397,62.564543 31.287172,51.22515 24.263721,39.887139 17.238908,28.547088 11.938798,20.473415 1.3388448,4.3268356 1.3388448,4.3268356 Z"
         inkscape:path-effect="#path-effect877" />
      <path
         sodipodi:nodetypes="cc"
         d="M 1.8287203,5.0730536 C 1.6654117,4.8242856 1.5021285,4.5755606 1.3388449,4.3268356"
         style="fill:none;stroke:#ff0000;stroke-width:1.73254;stroke-linecap:butt;stroke-linejoin:miter;stroke-miterlimit:4;stroke-dasharray:none;stroke-opacity:1"
         id="path881" />
      <path
         sodipodi:nodetypes="ccssscccsc"
         d="m 1.5805979,4.9235266 5.5565518,8.2558754 c 3.4571283,5.292831 7.0279103,10.800669 10.9640473,17.000721 6.162457,9.706867 13.185816,21.045165 24.552268,30.124715 11.366452,9.07955 27.072425,15.897832 39.258291,10.644415 4.164274,-1.795249 8.116042,-5.403102 11.473035,-9.837286 l 0.413637,0.230096 C 93.713878,61.196363 93.628347,61.050407 93.54371,60.904696 88.7145,52.590747 83.618519,44.223675 62.983421,32.755501 41.986671,21.086333 38.664423,19.80238 1.5805979,4.9235266 Z"
         style="fill:#008000;stroke:none;stroke-width:1.73254;stroke-linecap:butt;stroke-linejoin:miter;stroke-miterlimit:4;stroke-dasharray:none;stroke-opacity:1"
         id="path904" />
      <path
         sodipodi:nodetypes="ccccccc"
         id="path908"
         d="M 1.3388448,4.3268356 C 26.670097,1.5060104 51.046034,-1.2084332 70.085415,3.4129091 89.124796,8.0342513 102.31177,21.643592 103.3943,33.290691 104.47684,44.93779 94.097714,65.696049 81.911847,70.949466 69.725979,76.202884 54.020013,69.384289 42.653561,60.304739 31.287109,51.225189 24.263654,39.887181 18.101198,30.180316 11.938743,20.473451 6.6388659,12.400253 1.3388448,4.3268356 Z"
         style="fill:none;stroke:#000000;stroke-width:1.73254;stroke-linecap:butt;stroke-linejoin:miter;stroke-miterlimit:4;stroke-dasharray:none;stroke-opacity:1"
         inkscape:original-d="m 1.3388448,4.3268356 c 0,0 49.7072172,-5.535021 75.9937572,-8.4624755 C 89.124799,8.0342486 102.31177,21.643589 111.42261,31.046251 104.47712,44.937929 94.097991,65.696187 85.434456,83.022569 69.725933,76.20299 54.019966,69.384398 38.311397,62.564543 31.287172,51.22515 24.263721,39.887139 17.238908,28.547088 11.938798,20.473415 1.3388448,4.3268356 1.3388448,4.3268356 Z"
         inkscape:path-effect="#path-effect910" />
      <path
         sodipodi:nodetypes="ccccc"
         id="path835"
         d="m 46.961584,24.595487 c 14.684687,7.47171 29.369359,14.943411 39.813014,27.447269 10.443655,12.503857 16.645802,30.038538 15.415542,46.747282 -1.23026,16.708742 -9.892637,32.589762 -12.780198,44.862282 -2.887562,12.27253 -4.9e-5,20.93507 2.887432,29.59751"
         style="fill:none;stroke:#000000;stroke-width:3.18797;stroke-linecap:butt;stroke-linejoin:miter;stroke-miterlimit:4;stroke-dasharray:none;stroke-opacity:1"
         inkscape:original-d="m 46.961584,24.595487 c 0,0 29.369311,14.943505 44.054061,22.415129 6.202744,17.535949 12.404885,35.070631 18.607165,52.606127 -8.66266,15.882187 -17.325033,31.763207 -25.988151,47.644937 2.887858,8.66312 5.775372,17.32566 8.662715,25.98815"
         inkscape:path-effect="#path-effect837" />
      <path
         sodipodi:nodetypes="ssccsssccccccss"
         d="m 143.90796,87.29237 c -4.51473,-0.01 -8.48099,0.15003 -11.84326,0.53002 -7.68515,0.86857 -6.54498,1.44563 -6.54498,1.44563 l -0.33731,3.34791 c -0.35113,4.28601 -0.10106,8.34013 0.67506,11.52719 2.83039,11.62306 12.61917,11.72995 20.89535,9.22042 8.27618,-2.50954 15.03878,-7.63534 25.14855,-11.65791 10.10978,-4.02259 23.56584,-6.94173 37.02224,-9.86103 -0.0788,-0.0463 -0.15753,-0.0924 -0.23636,-0.13876 l 0.21353,-0.002 c -0.0857,-0.008 -0.17043,-0.0148 -0.25606,-0.0225 -1.7e-4,-1.1e-4 -2.3e-4,-2.3e-4 -4.6e-4,-4.6e-4 h -0.005 c -15.73493,-1.38947 -31.45675,-2.77595 -44.7157,-3.60947 -7.49968,-0.47146 -14.21061,-0.76603 -20.01525,-0.77892 z"
         style="fill:#008000;stroke:none;stroke-width:1.32422;stroke-linecap:butt;stroke-linejoin:miter;stroke-miterlimit:4;stroke-dasharray:none;stroke-opacity:1"
         id="path912" />
      <path
         style="fill:none;stroke:#000000;stroke-width:1.32422;stroke-linecap:butt;stroke-linejoin:miter;stroke-miterlimit:4;stroke-dasharray:none;stroke-opacity:1"
         d="m 208.92362,91.84468 c -25.8795,-15.200777 -51.75827,-30.401123 -66.76296,-26.431928 -15.00469,3.969195 -19.13357,27.107302 -16.30318,38.730358 2.83038,11.62306 12.61934,11.72987 20.89553,9.22033 8.27618,-2.50954 15.03865,-7.63509 25.14843,-11.65767 10.10977,-4.022586 23.56579,-6.941797 37.02218,-9.86109 z"
         id="path928"
         sodipodi:nodetypes="cccccc"
         inkscape:original-d="m 208.92362,91.84468 c 0,0 -51.75831,-30.401058 -77.63851,-45.602331 -4.12887,23.139647 -8.25776,46.277751 -12.38711,69.417001 9.78986,0.10706 19.57882,0.21385 29.36827,0.32044 6.76311,-5.12564 13.52558,-10.25119 20.28817,-15.37723 13.45683,-2.91911 40.36918,-8.75788 40.36918,-8.75788 z"
         inkscape:path-effect="#path-effect930" />
      <path
         sodipodi:nodetypes="cccc"
         id="path852"
         d="m 96.869479,121.91786 c 4.251061,-10.32115 8.502181,-20.64245 15.359611,-26.602273 6.85744,-5.95982 16.32095,-7.558038 26.23674,-7.961333 9.9158,-0.403294 20.2833,0.388279 30.65113,1.179876"
         style="fill:none;stroke:#000000;stroke-width:3.18797;stroke-linecap:butt;stroke-linejoin:miter;stroke-miterlimit:4;stroke-dasharray:none;stroke-opacity:1"
         inkscape:original-d="m 96.869479,121.91786 c 4.251331,-10.32104 8.502451,-20.64234 12.753331,-30.96384 9.46376,-1.59799 18.92727,-3.19622 28.39068,-4.79468 10.36812,0.79182 20.73562,1.5834 31.10347,2.37479"
         inkscape:path-effect="#path-effect854" />
    </g>
    <ellipse
       ry="95.725327"
       rx="103.14348"
       cy="96.931732"
       cx="105.82901"
       id="ellipse889"
       style="display:inline;fill:none;stroke:#000000;stroke-width:2.49325;stroke-linecap:round;stroke-linejoin:round" />
  </g>
</svg>
